<?xml version="1.0" encoding="UTF-8"?>
<svg id="STENBIT_logo" xmlns="http://www.w3.org/2000/svg" viewBox="0 0 693.67 225.28">
  <defs>
    <style>
      .cls-1 {
        fill: #fc2f00;
        stroke-width: 0px;
      }
    </style>
  </defs>
  <g id="STENBIT_logo-2" data-name="STENBIT_logo">
    <path id="Sign" class="cls-1" d="m116.89,0H32.85L0,32.85v116.89h48.01l20.86-20.86v20.86h48.01l32.85-32.85V32.85L116.89,0Zm20.86,37.82v22.58L89.34,11.99h22.58l25.83,25.83Zm-68.88,31.06H20.47l48.41-48.41v48.41Zm11.99-48.41l48.41,48.41h-48.41V20.47Zm-43.05-8.48h22.58L11.99,60.4v-22.58l25.83-25.83Zm22.58,68.88l-48.41,48.41v-48.41h48.41Zm-17.35,56.89h-22.58l48.41-48.41v22.58l-25.83,25.83Zm37.82-56.89h48.41l-48.41,48.41m31.06,8.48h-22.58l48.41-48.41v22.58l-25.83,25.83Z"/>
    <g id="Logo">
      <path class="cls-1" d="m188.13,152.29l-3.84,3.84v15.37h43.54v39.83l-13.96,13.96h-48.79v-16.65h40.98l3.84-3.84v-16.65h-43.54v-38.55l13.96-13.96h47.51v16.65h-39.7Z"/>
      <path class="cls-1" d="m268.52,152.29h-25.61v-16.65h69.15s0,16.65,0,16.65c0,0-25.61,0-25.61,0v72.99h-17.93v-72.99Z"/>
      <path class="cls-1" d="m387.34,225.28h-60.19v-89.64h58.91v16.65s-40.98,0-40.98,0v19.21h29.45v16.65s-29.45,0-29.45,0v20.49h42.26s0,16.65,0,16.65Z"/>
      <path class="cls-1" d="m424.56,167.65v57.63h-16.65v-89.64h17.01l35.49,57.63v-57.63s16.65,0,16.65,0v89.64h-16.88s-35.62-57.63-35.62-57.63Z"/>
      <path class="cls-1" d="m552.93,225.28h-52.63v-89.64h52.63s13.96,13.96,13.96,13.96v24.42l-6.27,6.44,6.27,6.27v24.59l-13.96,13.96Zm-7.81-52.5l3.84-3.84v-14.09l-3.84-3.84h-26.89v21.77h26.89Zm0,37.14l3.84-3.84v-14.09l-3.84-3.84h-26.89v21.77h26.89Z"/>
      <path class="cls-1" d="m605.31,135.64v89.64h-17.93v-89.64h17.93Z"/>
      <path class="cls-1" d="m650.13,152.29h-25.61v-16.65h69.15v16.65h-25.61v72.99h-17.93v-72.99Z"/>
    </g>
  </g>
</svg>